<svg id="Capa_1" enable-background="new 0 0 512 512" height="512" viewBox="0 0 512 512" width="512" xmlns="http://www.w3.org/2000/svg" xmlns:xlink="http://www.w3.org/1999/xlink"><linearGradient id="SVGID_1_" gradientUnits="userSpaceOnUse" x1="256" x2="256" y1="512" y2="0"><stop offset="0" stop-color="#ffc8d1"/><stop offset="1" stop-color="#fff6f7"/></linearGradient><linearGradient id="SVGID_2_" gradientUnits="userSpaceOnUse" x1="256" x2="256" y1="105" y2="407"><stop offset="0" stop-color="#fd3a84"/><stop offset="1" stop-color="#ffa68d"/></linearGradient><g><g><g><circle cx="256" cy="256" fill="url(#SVGID_1_)" r="256"/></g></g><g><g><path d="m256 105c-63.668 0-115.471 43.831-115.471 97.706 0 1.642.493 3.186 1.311 4.544l51.983 86.74v104.128c0 4.975 3.908 8.882 8.882 8.882h106.588c4.975 0 8.882-3.908 8.882-8.882v-104.128l51.983-86.74c.818-1.359 1.311-2.903 1.311-4.544.002-55.929-53.659-97.706-115.469-97.706zm-48.265 177.647-45.872-76.455c8.599-4.099 17.29-5.366 33.442 2.757l22.109 73.698zm57.147 0v44.412c0 4.975-3.908 8.882-8.882 8.882s-8.882-3.908-8.882-8.882v-44.412h-11.155l-22.672-75.575c9-4.636 17.488-6.701 33.827 1.149v74.425h17.764v-74.665c9.356-5.032 17.563-7.962 33.746-.639l-22.591 75.304h-11.155zm39.383 0h-9.679l22.169-73.896c9.611-5.268 17.503-8.877 33.223-2.293z" fill="url(#SVGID_2_)"/></g></g></g></svg>